<svg xmlns="http://www.w3.org/2000/svg" width="419" height="235" viewBox="0 0 419 235">
  <defs>
    <style>
      .cls-1 {
        fill-rule: evenodd;
      }
    </style>
  </defs>
  <path class="cls-1" d="M154.5,234.857C104.167,232.3,53.833,218.233,2.368,203.668-1.468,201,1.485,193.472.5,190.5c-1.167-1,2.167-2,2-3.536,80.333,23.238,160.667,45.117,241.324,21.388,23.451-7.079,36.993-14.6,48.465-22.063a155.362,155.362,0,0,0,45.5-45.5c6.338-8.328,11.351-17.983,16.271-28.29,6.736-15,12.423-30,18.287-45,0.641,12.667-5.424,25.333-9.421,38.395-10.711,27.4-16.442,37.3-26.453,52.579a164.215,164.215,0,0,1-54.6,50.208,206.569,206.569,0,0,1-44.371,17.99c-17.333,4.6-34.667,7.841-52,7.937m205.009-214.1c-24.966,29.368-53.265,55.4-83.009,80.991-0.667-.333-2.833.833-2.955-1.045-0.555-1.778-2.118-2.548-1.707-5.665,8.863-6.014,12.261-17.314,21.278-24.585,15.866-14.694,27.874-25.034,40.649-35.441,12.961-9.705,22.048-23.285,33.644-35.174C398.937,1.4,402.063.6,402.338,3.608c1.643,5.615-3.674,13.663,2.114,18.136,0.651,14.235-2.43,33.211,6.193,44.56-2.611,10.859,4.088,18.2,4.765,29.2,0.5,4.667,1.974,9.333,2.161,15,2.04,2,.365,4,0.99,7.273-0.649-.306,1.054,7.343-2.061,9.727h-4.9c-2.034-8.667-.9-17.333-3.793-27-5.494-26.667-15.818-53.333-15.3-80M314.571,84.571C320.782,79.913,354.1,46.714,356,46.714V46.286L354.286,46,317.429,79.571q-1.287,2.214-2.572,4.429M401,22.833v6q0.417-2.666.833-5.333l-1-.833c-0.055.222-.111,0.444-0.166,0.667Z"/>
</svg>
